<svg width="771" height="611" viewBox="0 0 771 611" fill="none" xmlns="http://www.w3.org/2000/svg">
<path opacity="0.1" fill-rule="evenodd" clip-rule="evenodd" d="M612.571 482.211L268.04 284.396L431.194 190.883L770.313 387.152L612.571 482.211Z" fill="#453560"/>
<path fill-rule="evenodd" clip-rule="evenodd" d="M564.657 107.781V285.707L433.405 364.36V186.435L564.657 107.781Z" fill="#A85A7D"/>
<path fill-rule="evenodd" clip-rule="evenodd" d="M385.9 4.70428L254.647 83.3573L433.405 186.435L564.657 107.781L385.9 4.70428Z" fill="#F995C2"/>
<path fill-rule="evenodd" clip-rule="evenodd" d="M254.647 261.283L433.405 364.36V186.435L254.647 83.3573V261.283Z" fill="#E885AD"/>
<path fill-rule="evenodd" clip-rule="evenodd" d="M254.53 147.592L433.405 251.539V236.071L254.53 132.123V147.592Z" fill="#FFC281"/>
<path fill-rule="evenodd" clip-rule="evenodd" d="M368.354 195.255L353.593 186.743V169.718L334.457 158.684V175.708L319.696 167.197V189.264L334.457 197.776V214.802L353.593 225.837V208.811L368.354 217.322V195.255Z" fill="#FFE6DB"/>
<path fill-rule="evenodd" clip-rule="evenodd" d="M423.377 78.1217L436.646 85.7731L424.86 92.5696L437.109 99.6325L422.965 107.788L410.716 100.725L398.93 107.521L385.661 99.8696L397.447 93.0731L385.198 86.0101L398.336 78.4352L410.589 85.4958L423.377 78.1217Z" fill="#FFE6DB"/>
<path fill-rule="evenodd" clip-rule="evenodd" d="M613.227 468.05C613.227 468.05 617.482 404.237 591.944 376.016C591.944 376.016 533.425 336.141 521.719 323.252C521.719 323.252 490.862 252.693 484.476 247.785C478.093 242.878 433.405 218.336 433.405 218.336V364.36L613.227 468.05Z" fill="#FFE6DB"/>
<path fill-rule="evenodd" clip-rule="evenodd" d="M508.417 318.653C508.417 318.653 483.945 261.585 480.751 259.132C477.562 256.682 451.49 242.26 451.49 242.26V285.827L508.417 318.653Z" fill="#55BDDA"/>
<path fill-rule="evenodd" clip-rule="evenodd" d="M723.197 297.363L591.944 376.016C617.479 404.234 613.227 468.035 613.226 468.05L744.478 389.397C744.478 389.397 748.734 325.584 723.197 297.363Z" fill="#F7DED5"/>
<path fill-rule="evenodd" clip-rule="evenodd" d="M615.728 169.132L484.476 247.785C490.862 252.693 521.719 323.252 521.719 323.252L652.972 244.599C652.972 244.599 622.115 174.039 615.728 169.132Z" fill="#FFEFE9"/>
<path fill-rule="evenodd" clip-rule="evenodd" d="M609.355 179.58L495.899 247.57C501.418 251.811 528.093 312.804 528.093 312.804L641.549 244.816C641.549 244.816 614.876 183.822 609.355 179.58Z" fill="#7BE6FF"/>
<path fill-rule="evenodd" clip-rule="evenodd" d="M609.355 179.58L495.899 247.57C501.418 251.811 528.093 312.804 528.093 312.804L641.549 244.816C641.549 244.816 614.876 183.822 609.355 179.58Z" fill="#7BE6FF"/>
<path fill-rule="evenodd" clip-rule="evenodd" d="M529.186 307.342C529.186 307.342 508.05 259.011 499.514 245.402L495.898 247.569C501.419 251.812 528.093 312.804 528.093 312.804L641.549 244.815C641.549 244.815 640.933 243.407 639.873 241.013L529.186 307.342Z" fill="#55BDDA"/>
<path fill-rule="evenodd" clip-rule="evenodd" d="M652.972 244.599L521.719 323.252C533.426 336.141 591.944 376.016 591.944 376.016L723.196 297.363C723.196 297.363 664.678 257.487 652.972 244.599Z" fill="#F7DED5"/>
<path fill-rule="evenodd" clip-rule="evenodd" d="M564.657 139.683L433.405 218.336C433.405 218.336 482.632 245.603 484.476 247.785L615.728 169.132C615.728 169.132 576.656 145.361 564.657 139.683Z" fill="#F7DED5"/>
<path fill-rule="evenodd" clip-rule="evenodd" d="M723.132 297.219C723.132 297.219 717.115 293.12 708.569 287.135L577.381 365.931L606.636 404.267L737.824 325.47C734.608 314.783 729.932 304.736 723.132 297.219Z" fill="#FFAF9F"/>
<path fill-rule="evenodd" clip-rule="evenodd" d="M591.944 376.016C591.944 376.016 585.927 371.916 577.381 365.931C577.381 365.931 577.164 385.788 606.636 404.267C603.42 393.58 598.745 383.532 591.944 376.016Z" fill="#FFC281"/>
<path fill-rule="evenodd" clip-rule="evenodd" d="M480.75 259.132C478.384 257.314 463.43 248.911 455.865 244.692V283.642L505.711 312.384C499.253 297.494 483.287 261.081 480.75 259.132Z" fill="#7BE6FF"/>
<path fill-rule="evenodd" clip-rule="evenodd" d="M254.53 222.651L564.809 401.568V386.099L254.53 207.182V222.651Z" fill="#FFC281"/>
<path fill-rule="evenodd" clip-rule="evenodd" d="M254.53 248.599L564.809 427.515V412.045L254.53 233.129V248.599Z" fill="#FFC281"/>
<path fill-rule="evenodd" clip-rule="evenodd" d="M523.45 398.49C523.45 419.679 538.342 445.442 556.715 456.036C575.092 466.632 589.986 458.046 589.986 436.857C589.986 415.665 575.092 389.9 556.715 379.303C538.342 368.708 523.45 377.298 523.45 398.49Z" fill="#82546C"/>
<path fill-rule="evenodd" clip-rule="evenodd" d="M286.427 261.815C286.427 283.004 301.32 308.767 319.694 319.362C338.069 329.958 352.964 321.372 352.964 300.183C352.964 278.991 338.069 253.225 319.694 242.63C301.32 232.035 286.427 240.623 286.427 261.815Z" fill="#82546C"/>
<path fill-rule="evenodd" clip-rule="evenodd" d="M300.53 269.948C300.53 282.153 309.113 296.994 319.694 303.097C330.276 309.198 338.857 304.254 338.857 292.049C338.857 279.842 330.276 264.999 319.694 258.896C309.113 252.795 300.53 257.741 300.53 269.948ZM556.715 395.57C567.299 401.673 575.881 416.516 575.881 428.724C575.881 440.929 567.299 445.873 556.715 439.77C546.136 433.669 537.551 418.826 537.551 406.621C537.551 394.414 546.136 389.47 556.715 395.57Z" fill="#995C7F"/>
<path fill-rule="evenodd" clip-rule="evenodd" d="M329.538 300.912C318.956 294.81 310.375 279.968 310.375 267.763C310.375 262.754 311.821 258.971 314.255 256.669C306.323 254.799 300.53 259.921 300.53 269.948C300.53 282.153 309.113 296.995 319.695 303.096C325.935 306.695 331.478 306.449 334.978 303.14C333.253 302.733 331.428 302.001 329.538 300.912ZM572.001 439.814C568.502 443.123 562.958 443.369 556.716 439.77C546.136 433.67 537.551 418.826 537.551 406.622C537.551 396.594 543.345 391.473 551.277 393.343C548.842 395.645 547.395 399.428 547.395 404.437C547.395 416.642 555.979 431.485 566.559 437.585C568.45 438.675 570.275 439.407 572.001 439.814Z" fill="#633B52"/>
<path fill-rule="evenodd" clip-rule="evenodd" d="M298.058 90.665V95.5695L319.805 83.175V78.2713L298.058 90.665Z" fill="#55BDDA"/>
<path fill-rule="evenodd" clip-rule="evenodd" d="M276.312 78.4524L298.058 90.6647L319.805 78.2709L298.058 66.0587L276.312 78.4524Z" fill="#7BE6FF"/>
<path fill-rule="evenodd" clip-rule="evenodd" d="M276.312 78.4524V83.1755L298.058 95.5692V90.6647L276.312 78.4524Z" fill="#1D8CAA"/>
<path fill-rule="evenodd" clip-rule="evenodd" d="M303.878 65.0135C300.528 66.9449 295.098 66.9449 291.748 65.0135C288.397 63.0822 288.397 59.9507 291.748 58.0186C295.097 56.0872 300.528 56.0872 303.878 58.0186C307.227 59.9507 307.227 63.0822 303.878 65.0135Z" fill="#FFC281"/>
<path fill-rule="evenodd" clip-rule="evenodd" d="M309.688 77.7431L306.358 61.1353C306.544 62.5245 305.721 63.9509 303.877 65.0135C300.528 66.9448 295.097 66.9448 291.747 65.0135C289.907 63.9524 289.085 62.5292 289.266 61.1414L286.083 77.211C286.037 77.3871 285.999 77.5647 285.978 77.7423V77.7431C285.74 79.6552 286.88 81.6136 289.415 83.0755C294.053 85.7497 301.572 85.7497 306.21 83.0755C308.745 81.6136 309.884 79.6552 309.648 77.7431H309.688Z" fill="#FFDCC0"/>
<path fill-rule="evenodd" clip-rule="evenodd" d="M389.994 34.8629V39.7674L411.74 27.3729V22.4692L389.994 34.8629Z" fill="#55BDDA"/>
<path fill-rule="evenodd" clip-rule="evenodd" d="M368.247 22.6503L389.994 34.8625L411.74 22.4688L389.994 10.2565L368.247 22.6503Z" fill="#7BE6FF"/>
<path fill-rule="evenodd" clip-rule="evenodd" d="M368.247 22.6503V27.3733L389.994 39.7671V34.8625L368.247 22.6503Z" fill="#1D8CAA"/>
<path fill-rule="evenodd" clip-rule="evenodd" d="M395.813 9.21147C392.464 11.1429 387.033 11.1429 383.683 9.21147C380.333 7.28009 380.333 4.14865 383.683 2.21649C387.033 0.285114 392.463 0.285114 395.813 2.21649C399.163 4.14865 399.163 7.28009 395.813 9.21147Z" fill="#FFC281"/>
<path fill-rule="evenodd" clip-rule="evenodd" d="M401.624 21.941L398.293 5.33311C398.479 6.72238 397.656 8.14871 395.813 9.21132C392.463 11.1435 387.032 11.1435 383.683 9.21132C381.843 8.15026 381.02 6.72701 381.202 5.33929L378.018 21.4089C377.972 21.5857 377.935 21.7626 377.913 21.941H377.912H377.913C377.676 23.8531 378.815 25.8115 381.35 27.2733C385.988 29.9476 393.507 29.9476 398.145 27.2733C400.68 25.8115 401.82 23.8531 401.583 21.941H401.624Z" fill="#FFDCC0"/>
<path fill-rule="evenodd" clip-rule="evenodd" d="M432.631 173.254V178.158L454.378 165.765V160.86L432.631 173.254Z" fill="#55BDDA"/>
<path fill-rule="evenodd" clip-rule="evenodd" d="M410.885 161.042L432.631 173.254L454.378 160.86L432.631 148.648L410.885 161.042Z" fill="#7BE6FF"/>
<path fill-rule="evenodd" clip-rule="evenodd" d="M410.885 161.042V165.765L432.631 178.158V173.254L410.885 161.042Z" fill="#1D8CAA"/>
<path fill-rule="evenodd" clip-rule="evenodd" d="M438.451 147.603C435.101 149.534 429.67 149.534 426.32 147.603C422.97 145.671 422.97 142.54 426.32 140.608C429.67 138.676 435.101 138.676 438.451 140.608C441.8 142.54 441.8 145.671 438.451 147.603Z" fill="#FFC281"/>
<path fill-rule="evenodd" clip-rule="evenodd" d="M444.261 160.332L440.931 143.724C441.116 145.113 440.294 146.54 438.45 147.602C435.101 149.535 429.67 149.535 426.32 147.602C424.48 146.541 423.657 145.118 423.839 143.73L420.656 159.8C420.609 159.977 420.572 160.154 420.551 160.332C420.313 162.244 421.453 164.203 423.987 165.664C428.626 168.339 436.145 168.339 440.783 165.664C443.318 164.203 444.457 162.244 444.22 160.332H444.261Z" fill="#FFDCC0"/>
<path fill-rule="evenodd" clip-rule="evenodd" d="M524.567 117.452V122.356L546.313 109.963V105.058L524.567 117.452Z" fill="#55BDDA"/>
<path fill-rule="evenodd" clip-rule="evenodd" d="M502.82 105.24L524.567 117.452L546.313 105.058L524.567 92.8459L502.82 105.24Z" fill="#7BE6FF"/>
<path fill-rule="evenodd" clip-rule="evenodd" d="M502.82 105.24V109.963L524.567 122.356V117.452L502.82 105.24Z" fill="#1D8CAA"/>
<path fill-rule="evenodd" clip-rule="evenodd" d="M530.386 91.8007C527.036 93.7321 521.606 93.7321 518.256 91.8007C514.906 89.8694 514.906 86.7371 518.256 84.8058C521.606 82.8744 527.036 82.8744 530.385 84.8058C533.736 86.7371 533.736 89.8694 530.386 91.8007Z" fill="#FFC281"/>
<path fill-rule="evenodd" clip-rule="evenodd" d="M536.196 104.53L532.866 87.9221C533.052 89.3113 532.228 90.7377 530.385 91.8003C527.036 93.7324 521.605 93.7324 518.256 91.8003C516.415 90.74 515.593 89.316 515.775 87.9283L512.591 103.998C512.545 104.175 512.508 104.352 512.485 104.53C512.249 106.442 513.388 108.4 515.923 109.862C520.561 112.537 528.08 112.537 532.718 109.862C535.253 108.4 536.392 106.442 536.156 104.53H536.196Z" fill="#FFDCC0"/>
<path opacity="0.1" fill-rule="evenodd" clip-rule="evenodd" d="M18.3459 566.803L92.528 610L277.023 502.863L202.84 459.667L18.3459 566.803Z" fill="#453560"/>
<path fill-rule="evenodd" clip-rule="evenodd" d="M40.2793 553.844C39.4476 555.194 39.3849 556.713 40.1408 557.236C40.5424 557.515 41.0941 557.456 41.6473 557.137C42.1355 556.856 42.6253 556.373 43.0145 555.74L60.1953 527.857C60.6054 527.192 60.8468 526.45 60.8623 525.803C60.877 525.156 60.6657 524.66 60.2773 524.429L47.6422 516.927L42.0899 520.128C42.1835 520.294 42.3003 520.438 42.4582 520.531L55.891 528.508L40.2793 553.844Z" fill="#E0BDCD"/>
<path fill-rule="evenodd" clip-rule="evenodd" d="M30.6979 570.328C29.0545 568.689 28.0827 566.061 28.0827 562.609C28.0827 553.974 34.1558 543.474 41.6471 539.158C44.5648 537.475 47.266 536.985 49.4781 537.516C50.7222 537.816 51.8117 538.44 52.6968 539.361L58.0379 542.422L55.1836 547.607C54.9205 555.523 49.7605 564.804 43.1566 569.454L39.6122 575.892L33.1971 571.888C32.2531 571.564 31.4121 571.04 30.6979 570.328Z" fill="#D8B4C6"/>
<path fill-rule="evenodd" clip-rule="evenodd" d="M35.9142 567.3C35.9142 575.935 41.9873 579.435 49.4779 575.117C56.9692 570.8 63.0422 560.3 63.0422 551.665C63.0422 543.03 56.9692 539.53 49.4779 543.847C41.9873 548.165 35.9142 558.665 35.9142 567.3Z" fill="#F2D1CF"/>
<path fill-rule="evenodd" clip-rule="evenodd" d="M41.7554 563.933C41.7554 568.849 45.2132 570.842 49.4781 568.384C53.7437 565.926 57.2007 559.948 57.2007 555.032C57.2007 550.115 53.7437 548.123 49.4781 550.58C45.2132 553.039 41.7554 559.017 41.7554 563.933Z" fill="#E0BDCD"/>
<path fill-rule="evenodd" clip-rule="evenodd" d="M49.4788 561.827C49.9671 561.546 50.4568 561.063 50.846 560.43L68.0268 532.548C68.4369 531.882 68.6776 531.141 68.693 530.493C68.7085 529.847 68.4973 529.35 68.1081 529.119L53.1873 520.26C52.3989 519.792 51.1114 520.523 50.3106 521.893C49.5098 523.263 49.5005 524.753 50.2897 525.222L63.7225 533.198L48.1101 558.535C47.2783 559.884 47.2164 561.403 47.9724 561.927C48.3732 562.206 48.9256 562.146 49.4788 561.827Z" fill="#FFE6DB"/>
<path fill-rule="evenodd" clip-rule="evenodd" d="M256.864 470.961V460.797L182.467 418.277V428.44L256.864 470.961Z" fill="#10768E"/>
<path fill-rule="evenodd" clip-rule="evenodd" d="M96.9956 585.835C96.1639 587.186 96.1012 588.704 96.8571 589.228C97.2587 589.507 97.8104 589.447 98.3636 589.128C98.8518 588.847 99.3416 588.364 99.7308 587.732L116.912 559.849C117.322 559.184 117.563 558.442 117.579 557.794C117.593 557.148 117.382 556.651 116.994 556.42L104.359 548.918L98.8062 552.12C98.8998 552.286 99.0166 552.429 99.1745 552.523L112.607 560.499L96.9956 585.835Z" fill="#E0BDCD"/>
<path fill-rule="evenodd" clip-rule="evenodd" d="M233.745 490.759L219.056 483.503C218.86 483.407 218.711 483.247 218.604 483.048L224.364 479.725L238.138 486.528C238.556 486.734 238.791 487.226 238.788 487.884C238.785 488.543 238.542 489.308 238.121 489.992L220.94 517.874C220.551 518.507 220.061 518.99 219.573 519.271C219.019 519.59 218.468 519.65 218.066 519.371C217.31 518.847 217.373 517.328 218.205 515.978L233.745 490.759Z" fill="#E0BDCD"/>
<path fill-rule="evenodd" clip-rule="evenodd" d="M182.859 418.505L1.17462 523.258V533.188L182.859 428.434V418.505Z" fill="#1D8CAA"/>
<path fill-rule="evenodd" clip-rule="evenodd" d="M236.382 454.685V478.155L245.418 473.464V449.994L236.382 454.685Z" fill="#FFE6DB"/>
<path fill-rule="evenodd" clip-rule="evenodd" d="M85.9434 541.458V564.928L94.0754 560.237V536.768L85.9434 541.458Z" fill="#FFE6DB"/>
<path fill-rule="evenodd" clip-rule="evenodd" d="M71.1042 555.142L267.436 441.754L196.332 400.774L9.15527e-05 514.163L71.1042 555.142Z" fill="#FFC281"/>
<path fill-rule="evenodd" clip-rule="evenodd" d="M71.1042 558.419V555.143L9.15527e-05 514.163V517.439L71.1042 558.419Z" fill="#FFDCC0"/>
<path fill-rule="evenodd" clip-rule="evenodd" d="M267.436 441.754L71.1042 555.142V558.419L267.436 445.03V441.754Z" fill="#E2A66F"/>
<path fill-rule="evenodd" clip-rule="evenodd" d="M257.164 461.012L75.1011 565.766V575.695L257.164 470.942V461.012Z" fill="#1EB59C"/>
<path fill-rule="evenodd" clip-rule="evenodd" d="M73.117 541.155L249.902 439.267L191.577 405.652L14.792 507.54L73.117 541.155Z" fill="#5FEDCB"/>
<path fill-rule="evenodd" clip-rule="evenodd" d="M73.117 548.973V541.155L14.792 507.54V515.358L73.117 548.973Z" fill="#43DCBC"/>
<path fill-rule="evenodd" clip-rule="evenodd" d="M75.1795 575.859V565.695L1.17468 523.175V533.338L75.1795 575.859Z" fill="#43DCBC"/>
<path fill-rule="evenodd" clip-rule="evenodd" d="M249.902 439.267L73.1173 541.155V548.973L249.902 447.085V439.267Z" fill="#1EB59C"/>
<path fill-rule="evenodd" clip-rule="evenodd" d="M87.4146 602.319C85.7712 600.68 84.7994 598.052 84.7994 594.601C84.7994 585.965 90.8724 575.466 98.363 571.149C101.282 569.467 103.982 568.976 106.194 569.508C107.439 569.807 108.528 570.431 109.413 571.353L114.755 574.414L111.9 579.599C111.636 587.514 106.477 596.796 99.8725 601.445L96.3288 607.883L89.9138 603.879C88.9698 603.555 88.1288 603.032 87.4146 602.319Z" fill="#D8B4C6"/>
<path fill-rule="evenodd" clip-rule="evenodd" d="M92.6305 599.291C92.6305 607.926 98.7036 611.426 106.194 607.109C113.685 602.791 119.759 592.291 119.759 583.656C119.759 575.022 113.685 571.521 106.194 575.839C98.7036 580.156 92.6305 590.656 92.6305 599.291Z" fill="#F2D1CF"/>
<path fill-rule="evenodd" clip-rule="evenodd" d="M98.4717 595.925C98.4717 600.841 101.93 602.834 106.194 600.376C110.46 597.917 113.917 591.939 113.917 587.023C113.917 582.107 110.46 580.114 106.194 582.572C101.93 585.03 98.4717 591.008 98.4717 595.925Z" fill="#E0BDCD"/>
<path fill-rule="evenodd" clip-rule="evenodd" d="M106.195 593.819C106.683 593.538 107.173 593.054 107.562 592.421L124.743 564.539C125.153 563.874 125.394 563.132 125.409 562.485C125.425 561.838 125.214 561.342 124.824 561.111L109.904 552.251C109.115 551.784 107.828 552.514 107.027 553.885C106.226 555.255 106.217 556.745 107.006 557.213L120.439 565.19L104.826 590.526C103.995 591.875 103.933 593.395 104.689 593.918C105.089 594.197 105.642 594.138 106.195 593.819Z" fill="#FFE6DB"/>
<path fill-rule="evenodd" clip-rule="evenodd" d="M208.994 531.623C207.351 529.984 206.379 527.357 206.379 523.905C206.379 515.271 212.452 504.77 219.943 500.453C222.861 498.771 225.561 498.281 227.774 498.813C229.018 499.112 230.108 499.736 230.993 500.657L236.334 503.719L233.48 508.903C233.217 516.819 228.057 526.1 221.453 530.751L217.908 537.188L211.493 533.184C210.549 532.86 209.708 532.336 208.994 531.623Z" fill="#D8B4C6"/>
<path fill-rule="evenodd" clip-rule="evenodd" d="M214.707 528.934C214.707 537.569 220.78 541.069 228.271 536.751C235.762 532.434 241.836 521.934 241.836 513.299C241.836 504.664 235.762 501.164 228.271 505.482C220.78 509.799 214.707 520.299 214.707 528.934Z" fill="#F2D1CF"/>
<path fill-rule="evenodd" clip-rule="evenodd" d="M220.548 525.567C220.548 530.484 224.006 532.476 228.271 530.019C232.537 527.56 235.994 521.582 235.994 516.666C235.994 511.75 232.537 509.757 228.271 512.215C224.006 514.673 220.548 520.651 220.548 525.567Z" fill="#E0BDCD"/>
<path fill-rule="evenodd" clip-rule="evenodd" d="M225.898 524.061C225.142 523.537 225.204 522.018 226.036 520.669L241.577 495.449L226.887 488.194C226.063 487.788 226.015 486.331 226.78 484.942C227.544 483.552 228.832 482.755 229.656 483.161L245.968 491.218C246.386 491.424 246.622 491.916 246.619 492.575C246.616 493.233 246.374 493.998 245.952 494.682L228.771 522.564C228.381 523.197 227.892 523.68 227.404 523.962C226.85 524.281 226.299 524.34 225.898 524.061Z" fill="#FFE6DB"/>
<path fill-rule="evenodd" clip-rule="evenodd" d="M319.964 532.083L366 558.903L340.487 573.333L294.451 546.545L319.964 532.083Z" fill="#EDEBF0"/>
<path fill-rule="evenodd" clip-rule="evenodd" d="M305.666 377.472L306.594 386.818L309.959 379.029L305.666 377.472Z" stroke="#715C93"/>
<path fill-rule="evenodd" clip-rule="evenodd" d="M304.284 415.395C301.54 422.677 300.902 430.606 301.45 438.323C301.763 442.734 303.017 472.953 302.751 477.382C302.51 481.388 299.287 483.173 297.762 486.557C296.32 489.755 296.691 493.507 296.704 496.918C296.711 498.904 296.732 501.005 296.124 502.923C295.185 505.883 292.784 505.844 290.198 505.042C284.474 503.264 276.365 498.726 271.254 504.285C270.249 505.378 271.88 507.015 272.889 505.917C275.872 502.673 280.813 504.107 284.44 505.365C287.549 506.444 291.464 508.808 294.87 507.639C301.888 505.23 297.748 492.999 299.706 487.914C300.908 484.792 303.988 482.958 304.772 479.57C305.697 475.564 304.524 445.55 304.065 441.557C303.081 432.994 303.45 424.138 306.513 416.008C307.039 414.616 304.804 414.015 304.284 415.395Z" fill="#E5CAD8"/>
<path fill-rule="evenodd" clip-rule="evenodd" d="M313.005 388.158L303.776 382.788C302.72 382.18 301.721 382.159 300.988 382.595L296.615 384.891L299.795 391.823V398.124C299.795 403.509 303.69 409.727 308.363 412.421L308.484 412.391C308.815 412.581 309.138 412.742 309.455 412.888L310.45 415.055L313.438 413.463C314.039 413.311 314.57 413.029 315.022 412.62L315.057 412.6V412.586C316.086 411.627 316.692 410.013 316.692 407.797V394.784C316.692 392.364 315.104 389.367 313.005 388.158Z" fill="#715C93"/>
<path fill-rule="evenodd" clip-rule="evenodd" d="M304.301 414.375L304.329 414.404C299.657 411.712 295.911 405.494 295.911 400.109V387.095C295.911 384.676 297.747 383.562 299.845 384.773L308.844 390.142C310.944 391.352 312.3 394.348 312.3 396.768V409.781C312.3 415.167 308.974 417.068 304.301 414.375Z" fill="#A85A7D"/>
<path fill-rule="evenodd" clip-rule="evenodd" d="M304.244 410.064L304.167 410.083C300.937 408.222 298.252 403.924 298.252 400.201V391.204C298.252 389.531 299.524 388.763 300.975 389.598L307.383 393.311C308.834 394.147 309.959 396.218 309.959 397.891V406.888C309.959 410.611 307.474 411.925 304.244 410.064Z" fill="#E0BDCD"/>
<path fill-rule="evenodd" clip-rule="evenodd" d="M345.301 566.727C345.301 564.103 343.456 560.914 341.179 559.603C338.904 558.292 337.06 559.354 337.06 561.978C337.06 562.254 337.084 562.538 337.123 562.823L335.906 563.442L340.117 572.228L344.258 569.275C344.905 568.81 345.301 567.937 345.301 566.727Z" fill="#A85A7D"/>
<path fill-rule="evenodd" clip-rule="evenodd" d="M341.204 569.648C341.204 572.271 339.358 573.333 337.082 572.023C334.807 570.711 332.962 567.522 332.962 564.898C332.962 562.275 334.807 561.213 337.082 562.524C339.358 563.835 341.204 567.025 341.204 569.648Z" fill="#E885AD"/>
<path fill-rule="evenodd" clip-rule="evenodd" d="M306.669 544.526C306.669 541.903 304.823 538.713 302.548 537.402C300.272 536.091 298.428 537.153 298.428 539.776C298.428 540.052 298.452 540.337 298.492 540.621L297.274 541.241L301.485 550.027L305.627 547.075C306.274 546.608 306.669 545.736 306.669 544.526Z" fill="#A85A7D"/>
<path fill-rule="evenodd" clip-rule="evenodd" d="M302.572 547.447C302.572 550.07 300.726 551.133 298.45 549.822C296.175 548.51 294.331 545.321 294.331 542.697C294.331 540.074 296.175 539.012 298.45 540.323C300.726 541.634 302.572 544.824 302.572 547.447Z" fill="#E885AD"/>
<path fill-rule="evenodd" clip-rule="evenodd" d="M339.947 390.493L345.424 387.212L352.384 391.222V383.044L307.615 357.245L295.177 364.694L317.562 385.26L318.298 529.308L307.615 523.152L295.177 530.601L339.947 556.399L345.424 553.119L352.384 557.129V548.951L333.516 538.077V389.158L339.947 390.493Z" fill="#E0BDCD"/>
<path fill-rule="evenodd" clip-rule="evenodd" d="M339.947 398.671V390.493L295.177 364.694V372.873L314.055 383.751V541.479L295.177 530.601V538.779L339.947 564.578V556.399L321.079 545.526V387.799L339.947 398.671Z" fill="#FFE6DB"/>
<path fill-rule="evenodd" clip-rule="evenodd" d="M339.947 390.493L352.384 383.044V391.422L339.947 398.87V390.493Z" fill="#F2D1CF"/>
<path fill-rule="evenodd" clip-rule="evenodd" d="M352.384 383.044L339.947 390.492L295.177 364.693L307.615 357.245L352.384 383.044Z" fill="#ECECEC"/>
<path fill-rule="evenodd" clip-rule="evenodd" d="M339.947 556.399L352.384 548.951V557.129L339.947 564.578V556.399Z" fill="#F2D1CF"/>
</svg>
